  0
SECTION
  2
HEADER
  9
$ACADVER
  1
AC1009
  9
$INSBASE
 10
0.0
 20
0.0
 30
0.0
  9
$EXTMIN
 10
0.0
 20
0.0
 30
0.0
  9
$EXTMAX
 10
0.0
 20
0.0
 30
0.0
  0
ENDSEC
  0
SECTION
  2
TABLES
  0
TABLE
  2
VPORT
 70
0
  0
ENDTAB
  0
TABLE
  2
LTYPE
 70
1
  0
LTYPE
  2
CONTINUOUS
 70
0
  3
Solid line
 72
65
 73
0
 40
0.0
  0
ENDTAB
  0
TABLE
  2
LAYER
 70
1
  0
LAYER
  2
0
 70
64
 62
7
  6
continuous
  0
ENDTAB
  0
TABLE
  2
STYLE
 70
1
  0
STYLE
  2
STANDARD
 70
0
 40
0
 41
1.0
 50
0.0
 71
0
 42
1
 3
ARIAL.TTF
 4

  0
ENDTAB
  0
TABLE
  2
VIEW
 70
0
  0
ENDTAB
  0
ENDSEC
  0
SECTION
  2
BLOCKS
  0
BLOCK
  8
0
  2
EXTRUDE291
 70
0
 10
0.0
 20
0.0
 30
0.0
  3
EXTRUDE291
  0
LINE
  8
0
 62
0
 10
276.0
 20
-113.00000000000006
 30
0.0
 11
0.0
 21
-113.00000000000006
 31
0.0
  0
LINE
  8
0
 62
0
 10
0.0
 20
-113.00000000000006
 30
0.0
 11
0.0
 21
-180.00000000000006
 31
0.0
  0
LINE
  8
0
 62
0
 10
0.0
 20
-180.00000000000006
 30
0.0
 11
276.0
 21
-180.00000000000006
 31
0.0
  0
LINE
  8
0
 62
0
 10
276.0
 20
-180.00000000000006
 30
0.0
 11
276.0
 21
-113.00000000000006
 31
0.0
  0
LINE
  8
0
 62
0
 10
197.0
 20
-125.00000000000006
 30
0.0
 11
163.0
 21
-125.00000000000006
 31
0.0
  0
LINE
  8
0
 62
0
 10
163.0
 20
-125.00000000000006
 30
0.0
 11
163.0
 21
-171.00000000000006
 31
0.0
  0
LINE
  8
0
 62
0
 10
163.0
 20
-171.00000000000006
 30
0.0
 11
197.0
 21
-171.00000000000006
 31
0.0
  0
LINE
  8
0
 62
0
 10
197.0
 20
-171.00000000000006
 30
0.0
 11
197.0
 21
-125.00000000000006
 31
0.0
  0
CIRCLE
  8
0
 62
0
 10
115.0
 20
-173.00000000000006
 30
0.0
 40
1.7
  0
CIRCLE
  8
0
 62
0
 10
123.0
 20
-173.00000000000006
 30
0.0
 40
1.7
  0
CIRCLE
  8
0
 62
0
 10
266.0000000000001
 20
-128.00000000000006
 30
0.0
 40
1.7
  0
CIRCLE
  8
0
 62
0
 10
258.0
 20
-120.00000000000006
 30
0.0
 40
1.7
  0
CIRCLE
  8
0
 62
0
 10
258.0
 20
-128.00000000000006
 30
0.0
 40
1.7
  0
CIRCLE
  8
0
 62
0
 10
220.0
 20
-173.00000000000006
 30
0.0
 40
1.7
  0
CIRCLE
  8
0
 62
0
 10
228.0
 20
-173.00000000000006
 30
0.0
 40
1.7
  0
CIRCLE
  8
0
 62
0
 10
10.0
 20
-128.00000000000006
 30
0.0
 40
1.5
  0
CIRCLE
  8
0
 62
0
 10
18.0
 20
-120.00000000000006
 30
0.0
 40
1.5
  0
CIRCLE
  8
0
 62
0
 10
18.0
 20
-128.00000000000006
 30
0.0
 40
1.5
  0
CIRCLE
  8
0
 62
0
 10
108.0
 20
-125.00000000000006
 30
0.0
 40
1.5
  0
CIRCLE
  8
0
 62
0
 10
126.0
 20
-125.00000000000006
 30
0.0
 40
1.5
  0
CIRCLE
  8
0
 62
0
 10
117.0
 20
-123.00000000000006
 30
0.0
 40
1.5
  0
CIRCLE
  8
0
 62
0
 10
10.0
 20
-165.00000000000006
 30
0.0
 40
1.5
  0
CIRCLE
  8
0
 62
0
 10
18.0
 20
-173.00000000000006
 30
0.0
 40
1.5
  0
CIRCLE
  8
0
 62
0
 10
18.0
 20
-165.00000000000006
 30
0.0
 40
1.5
  0
CIRCLE
  8
0
 62
0
 10
266.0
 20
-165.00000000000006
 30
0.0
 40
1.5
  0
CIRCLE
  8
0
 62
0
 10
258.0
 20
-173.00000000000006
 30
0.0
 40
1.5
  0
CIRCLE
  8
0
 62
0
 10
258.0
 20
-165.00000000000006
 30
0.0
 40
1.5
  0
CIRCLE
  8
0
 62
0
 10
163.0
 20
-174.00000000000006
 30
0.0
 40
1.5
  0
CIRCLE
  8
0
 62
0
 10
197.0
 20
-174.00000000000006
 30
0.0
 40
1.5
  0
CIRCLE
  8
0
 62
0
 10
163.0
 20
-119.00000000000006
 30
0.0
 40
1.5
  0
CIRCLE
  8
0
 62
0
 10
197.0
 20
-119.00000000000006
 30
0.0
 40
1.5
  0
ENDBLK
  0
ENDSEC
  0
SECTION
  2
ENTITIES
  0
INSERT
  2
EXTRUDE291
  8
0
 62
0
 10
0.0
 20
0.0
 30
0.0
  0
ENDSEC
  0
EOF
