  0
SECTION
  2
HEADER
  9
$ACADVER
  1
AC1009
  9
$INSBASE
 10
0.0
 20
0.0
 30
0.0
  9
$EXTMIN
 10
0.0
 20
0.0
 30
0.0
  9
$EXTMAX
 10
0.0
 20
0.0
 30
0.0
  0
ENDSEC
  0
SECTION
  2
TABLES
  0
TABLE
  2
VPORT
 70
0
  0
ENDTAB
  0
TABLE
  2
LTYPE
 70
1
  0
LTYPE
  2
CONTINUOUS
 70
0
  3
Solid line
 72
65
 73
0
 40
0.0
  0
ENDTAB
  0
TABLE
  2
LAYER
 70
1
  0
LAYER
  2
0
 70
64
 62
7
  6
continuous
  0
ENDTAB
  0
TABLE
  2
STYLE
 70
1
  0
STYLE
  2
STANDARD
 70
0
 40
0
 41
1.0
 50
0.0
 71
0
 42
1
 3
ARIAL.TTF
 4

  0
ENDTAB
  0
TABLE
  2
VIEW
 70
0
  0
ENDTAB
  0
ENDSEC
  0
SECTION
  2
BLOCKS
  0
BLOCK
  8
body
  2
EXTRUDE287
 70
0
 10
0.0
 20
0.0
 30
0.0
  3
EXTRUDE287
  0
LINE
  8
body
 62
0
 10
0.0
 20
50.0
 30
0.0
 11
276.0
 21
50.0
 31
0.0
  0
LINE
  8
body
 62
0
 10
276.0
 20
50.0
 30
0.0
 11
276.0
 21
236.0
 31
0.0
  0
LINE
  8
body
 62
0
 10
276.0
 20
236.0
 30
0.0
 11
0.0
 21
236.0
 31
0.0
  0
LINE
  8
body
 62
0
 10
0.0
 20
236.0
 30
0.0
 11
0.0
 21
50.0
 31
0.0
  0
CIRCLE
  8
body
 62
0
 10
248.47955299999992
 20
128.580536
 30
0.0
 40
2.0
  0
CIRCLE
  8
body
 62
0
 10
194.47955299999992
 20
147.564178
 30
0.0
 40
2.0
  0
CIRCLE
  8
body
 62
0
 10
248.47955299999995
 20
147.560028
 30
0.0
 40
2.0
  0
CIRCLE
  8
body
 62
0
 10
194.4795529999999
 20
128.560028
 30
0.0
 40
2.0
  0
CIRCLE
  8
body
 62
0
 10
248.4795529999999
 20
86.56002799999999
 30
0.0
 40
2.0
  0
CIRCLE
  8
body
 62
0
 10
194.4795529999999
 20
86.56002799999999
 30
0.0
 40
2.0
  0
CIRCLE
  8
body
 62
0
 10
248.4795529999999
 20
189.560028
 30
0.0
 40
2.0
  0
CIRCLE
  8
body
 62
0
 10
194.4795529999999
 20
189.560028
 30
0.0
 40
1.8
  0
CIRCLE
  8
body
 62
0
 10
62.793518
 20
176.772186
 30
0.0
 40
1.5
  0
CIRCLE
  8
body
 62
0
 10
10.0
 20
139.0
 30
0.0
 40
1.5
  0
CIRCLE
  8
body
 62
0
 10
10.0
 20
147.0
 30
0.0
 40
1.5
  0
CIRCLE
  8
body
 62
0
 10
266.0
 20
139.0
 30
0.0
 40
1.5
  0
CIRCLE
  8
body
 62
0
 10
266.0
 20
147.0
 30
0.0
 40
1.5
  0
CIRCLE
  8
body
 62
0
 10
228.0
 20
226.0
 30
0.0
 40
1.5
  0
CIRCLE
  8
body
 62
0
 10
220.0
 20
226.0
 30
0.0
 40
1.5
  0
CIRCLE
  8
body
 62
0
 10
228.0
 20
60.0
 30
0.0
 40
1.5
  0
CIRCLE
  8
body
 62
0
 10
220.0
 20
60.0
 30
0.0
 40
1.5
  0
CIRCLE
  8
body
 62
0
 10
123.0
 20
60.0
 30
0.0
 40
1.5
  0
CIRCLE
  8
body
 62
0
 10
115.0
 20
60.0
 30
0.0
 40
1.5
  0
CIRCLE
  8
body
 62
0
 10
123.0
 20
226.0
 30
0.0
 40
1.5
  0
CIRCLE
  8
body
 62
0
 10
115.0
 20
226.0
 30
0.0
 40
1.5
  0
CIRCLE
  8
body
 62
0
 10
14.539749
 20
178.026337
 30
0.0
 40
1.5
  0
CIRCLE
  8
body
 62
0
 10
19.610861
 20
125.963486
 30
0.0
 40
1.5
  0
CIRCLE
  8
body
 62
0
 10
47.554428
 20
125.951019
 30
0.0
 40
1.5
  0
CIRCLE
  8
body
 62
0
 10
83.0
 20
72.0
 30
0.0
 40
1.5
  0
CIRCLE
  8
body
 62
0
 10
83.0
 20
123.0
 30
0.0
 40
1.5
  0
CIRCLE
  8
body
 62
0
 10
171.0
 20
72.0
 30
0.0
 40
1.5
  0
CIRCLE
  8
body
 62
0
 10
171.0
 20
123.0
 30
0.0
 40
1.5
  0
CIRCLE
  8
body
 62
0
 10
258.0
 20
218.0
 30
0.0
 40
1.5
  0
CIRCLE
  8
body
 62
0
 10
175.0
 20
131.0
 30
0.0
 40
1.5
  0
CIRCLE
  8
body
 62
0
 10
138.0
 20
131.0
 30
0.0
 40
1.5
  0
CIRCLE
  8
body
 62
0
 10
175.0
 20
198.0
 30
0.0
 40
1.5
  0
CIRCLE
  8
body
 62
0
 10
138.0
 20
198.0
 30
0.0
 40
1.5
  0
CIRCLE
  8
body
 62
0
 10
258.0
 20
60.0
 30
0.0
 40
1.5
  0
CIRCLE
  8
body
 62
0
 10
266.0
 20
68.0
 30
0.0
 40
1.5
  0
CIRCLE
  8
body
 62
0
 10
258.0
 20
68.0
 30
0.0
 40
1.5
  0
CIRCLE
  8
body
 62
0
 10
266.0
 20
218.0
 30
0.0
 40
1.5
  0
CIRCLE
  8
body
 62
0
 10
258.0
 20
226.0
 30
0.0
 40
1.5
  0
CIRCLE
  8
body
 62
0
 10
18.0
 20
226.0
 30
0.0
 40
1.5
  0
CIRCLE
  8
body
 62
0
 10
18.0
 20
218.0
 30
0.0
 40
1.5
  0
CIRCLE
  8
body
 62
0
 10
10.0
 20
218.0
 30
0.0
 40
1.5
  0
CIRCLE
  8
body
 62
0
 10
18.0
 20
60.0
 30
0.0
 40
1.5
  0
CIRCLE
  8
body
 62
0
 10
18.0
 20
68.0
 30
0.0
 40
1.5
  0
CIRCLE
  8
body
 62
0
 10
10.0
 20
68.0
 30
0.0
 40
1.5
  0
CIRCLE
  8
body
 62
0
 10
14.554125
 20
95.491791
 30
0.0
 40
1.5
  0
CIRCLE
  8
body
 62
0
 10
62.78437
 20
101.824356
 30
0.0
 40
1.5
  0
ENDBLK
  0
ENDSEC
  0
SECTION
  2
ENTITIES
  0
INSERT
  2
EXTRUDE287
  8
body
 62
0
 10
0.0
 20
0.0
 30
0.0
  0
ENDSEC
  0
EOF
