  0
SECTION
  2
HEADER
  9
$ACADVER
  1
AC1009
  9
$INSBASE
 10
0.0
 20
0.0
 30
0.0
  9
$EXTMIN
 10
0.0
 20
0.0
 30
0.0
  9
$EXTMAX
 10
0.0
 20
0.0
 30
0.0
  0
ENDSEC
  0
SECTION
  2
TABLES
  0
TABLE
  2
VPORT
 70
0
  0
ENDTAB
  0
TABLE
  2
LTYPE
 70
1
  0
LTYPE
  2
CONTINUOUS
 70
0
  3
Solid line
 72
65
 73
0
 40
0.0
  0
ENDTAB
  0
TABLE
  2
LAYER
 70
1
  0
LAYER
  2
0
 70
64
 62
7
  6
continuous
  0
ENDTAB
  0
TABLE
  2
STYLE
 70
1
  0
STYLE
  2
STANDARD
 70
0
 40
0
 41
1.0
 50
0.0
 71
0
 42
1
 3
ARIAL.TTF
 4

  0
ENDTAB
  0
TABLE
  2
VIEW
 70
0
  0
ENDTAB
  0
ENDSEC
  0
SECTION
  2
BLOCKS
  0
BLOCK
  8
0
  2
EXTRUDE289
 70
0
 10
0.0
 20
0.0
 30
0.0
  3
EXTRUDE289
  0
LINE
  8
0
 62
0
 10
70.00000000000001
 20
233.00000000000006
 30
0.0
 11
70.00000000000001
 21
53.00000000000006
 31
0.0
  0
LINE
  8
0
 62
0
 10
70.00000000000001
 20
53.000000000000014
 30
0.0
 11
3.000000000000014
 21
53.000000000000014
 31
0.0
  0
LINE
  8
0
 62
0
 10
3.000000000000001
 20
53.000000000000014
 30
0.0
 11
3.000000000000001
 21
233.0
 31
0.0
  0
LINE
  8
0
 62
0
 10
3.000000000000001
 20
233.00000000000006
 30
0.0
 11
70.0
 21
233.00000000000006
 31
0.0
  0
LINE
  8
0
 62
0
 10
40.00000000000001
 20
158.48284100000004
 30
0.0
 11
40.00000000000001
 21
127.48284100000002
 31
0.0
  0
LINE
  8
0
 62
0
 10
40.00000000000001
 20
127.48284100000002
 30
0.0
 11
20.000000000000007
 21
127.48284100000002
 31
0.0
  0
LINE
  8
0
 62
0
 10
20.000000000000004
 20
127.48284100000002
 30
0.0
 11
20.000000000000004
 21
158.48284100000004
 31
0.0
  0
LINE
  8
0
 62
0
 10
20.000000000000004
 20
158.48284100000004
 30
0.0
 11
40.0
 21
158.48284100000004
 31
0.0
  0
LINE
  8
0
 62
0
 10
32.57723167811866
 20
89.95929867811866
 30
0.0
 11
32.57723167811866
 21
76.95929867811866
 31
0.0
  0
LINE
  8
0
 62
0
 10
32.57723167811866
 20
76.95929867811866
 30
0.0
 11
10.677231678118662
 21
76.95929867811866
 31
0.0
  0
LINE
  8
0
 62
0
 10
10.677231678118657
 20
76.95929867811866
 30
0.0
 11
10.677231678118657
 21
89.95929867811866
 31
0.0
  0
LINE
  8
0
 62
0
 10
10.677231678118657
 20
89.95929867811866
 30
0.0
 11
32.57723167811865
 21
89.95929867811866
 31
0.0
  0
LINE
  8
0
 62
0
 10
54.997717678118676
 20
149.02838032188137
 30
0.0
 11
54.997717678118676
 21
137.02838032188137
 31
0.0
  0
LINE
  8
0
 62
0
 10
54.997717678118676
 20
137.02838032188137
 30
0.0
 11
43.997717678118676
 21
137.02838032188137
 31
0.0
  0
LINE
  8
0
 62
0
 10
43.99771767811867
 20
137.02838032188137
 30
0.0
 11
43.99771767811867
 21
149.02838032188137
 31
0.0
  0
LINE
  8
0
 62
0
 10
43.99771767811867
 20
149.02838032188137
 30
0.0
 11
54.99771767811867
 21
149.02838032188137
 31
0.0
  0
CIRCLE
  8
0
 62
0
 10
21.522429000000002
 20
203.00000000000006
 30
0.0
 40
3.750000000000001
  0
CIRCLE
  8
0
 62
0
 10
63.000000000000014
 20
218.00000000000006
 30
0.0
 40
1.7000000000000004
  0
CIRCLE
  8
0
 62
0
 10
55.000000000000014
 20
218.00000000000006
 30
0.0
 40
1.7000000000000004
  0
CIRCLE
  8
0
 62
0
 10
55.000000000000014
 20
226.00000000000006
 30
0.0
 40
1.7000000000000004
  0
CIRCLE
  8
0
 62
0
 10
50.000000000000014
 20
130.00000000000003
 30
0.0
 40
1.5000000000000004
  0
CIRCLE
  8
0
 62
0
 10
50.000000000000014
 20
156.00000000000003
 30
0.0
 40
1.5000000000000004
  0
CIRCLE
  8
0
 62
0
 10
63.000000000000014
 20
68.00000000000001
 30
0.0
 40
1.5000000000000004
  0
CIRCLE
  8
0
 62
0
 10
55.000000000000014
 20
68.00000000000001
 30
0.0
 40
1.5000000000000004
  0
CIRCLE
  8
0
 62
0
 10
55.000000000000014
 20
60.000000000000014
 30
0.0
 40
1.5000000000000004
  0
CIRCLE
  8
0
 62
0
 10
10.000000000000002
 20
68.00000000000001
 30
0.0
 40
1.5000000000000004
  0
CIRCLE
  8
0
 62
0
 10
10.000000000000002
 20
147.00000000000003
 30
0.0
 40
1.5000000000000004
  0
CIRCLE
  8
0
 62
0
 10
10.000000000000002
 20
139.00000000000003
 30
0.0
 40
1.5000000000000004
  0
CIRCLE
  8
0
 62
0
 10
10.000000000000002
 20
218.00000000000006
 30
0.0
 40
1.5000000000000004
  0
CIRCLE
  8
0
 62
0
 10
18.000000000000004
 20
218.00000000000006
 30
0.0
 40
1.5000000000000004
  0
CIRCLE
  8
0
 62
0
 10
18.000000000000004
 20
226.00000000000006
 30
0.0
 40
1.5000000000000004
  0
CIRCLE
  8
0
 62
0
 10
30.000000000000007
 20
124.50358600000003
 30
0.0
 40
1.0000000000000002
  0
CIRCLE
  8
0
 62
0
 10
30.000000000000007
 20
161.48335300000002
 30
0.0
 40
1.0000000000000002
  0
ENDBLK
  0
ENDSEC
  0
SECTION
  2
ENTITIES
  0
INSERT
  2
EXTRUDE289
  8
0
 62
0
 10
0.0
 20
0.0
 30
0.0
  0
ENDSEC
  0
EOF
