  0
SECTION
  2
HEADER
  9
$ACADVER
  1
AC1009
  9
$INSBASE
 10
0.0
 20
0.0
 30
0.0
  9
$EXTMIN
 10
0.0
 20
0.0
 30
0.0
  9
$EXTMAX
 10
0.0
 20
0.0
 30
0.0
  0
ENDSEC
  0
SECTION
  2
TABLES
  0
TABLE
  2
VPORT
 70
0
  0
ENDTAB
  0
TABLE
  2
LTYPE
 70
1
  0
LTYPE
  2
CONTINUOUS
 70
0
  3
Solid line
 72
65
 73
0
 40
0.0
  0
ENDTAB
  0
TABLE
  2
LAYER
 70
1
  0
LAYER
  2
0
 70
64
 62
7
  6
continuous
  0
ENDTAB
  0
TABLE
  2
STYLE
 70
1
  0
STYLE
  2
STANDARD
 70
0
 40
0
 41
1.0
 50
0.0
 71
0
 42
1
 3
ARIAL.TTF
 4

  0
ENDTAB
  0
TABLE
  2
VIEW
 70
0
  0
ENDTAB
  0
ENDSEC
  0
SECTION
  2
BLOCKS
  0
BLOCK
  8
0
  2
EXTRUDE286
 70
0
 10
0.0
 20
0.0
 30
0.0
  3
EXTRUDE286
  0
LINE
  8
0
 62
252
 10
201.4988139387221
 20
43.21599863652264
 30
0.0
 11
199.89184491450575
 21
38.5175355325931
 31
0.0
  0
LINE
  8
0
 62
252
 10
206.96797185336936
 20
43.217224239053024
 30
0.0
 11
205.36100282915302
 21
38.51876113512348
 31
0.0
  0
LINE
  8
0
 62
252
 10
201.4988139387221
 20
43.21599863652264
 30
0.0
 11
206.9679718533694
 21
43.217224239053024
 31
0.0
  0
LINE
  8
0
 62
252
 10
199.89184491450573
 20
38.5175355325931
 30
0.0
 11
205.36100282915302
 21
38.51876113512348
 31
0.0
  0
LINE
  8
0
 62
252
 10
304.1088398062366
 20
5.595009416791257
 30
0.0
 11
302.5018707820202
 21
0.8965463128617142
 31
0.0
  0
LINE
  8
0
 62
252
 10
206.96797185336936
 20
43.217224239053024
 30
0.0
 11
304.1088398062366
 21
5.59500941679125
 31
0.0
  0
LINE
  8
0
 62
252
 10
205.361002829153
 20
38.51876113512348
 30
0.0
 11
302.5018707820202
 21
0.8965463128617088
 31
0.0
  0
LINE
  8
0
 62
252
 10
297.0327128673729
 20
0.8953207103313332
 30
0.0
 11
302.5018707820202
 21
0.8965463128617066
 31
0.0
  0
LINE
  8
0
 62
252
 10
199.89184491450573
 20
38.5175355325931
 30
0.0
 11
297.0327128673729
 21
0.8953207103313332
 31
0.0
  0
POLYLINE
  8
0
 62
252
 70
0
 66
1
 10
0.0
 20
0.0
 30
0.0
  0
VERTEX
  8
0
 10
218.3658122324122
 20
32.50364155568006
 30
0.0
  0
VERTEX
  8
0
 10
215.14748396279663
 20
33.595972658993844
 30
0.0
  0
SEQEND
  8
0
  0
POLYLINE
  8
0
 62
252
 70
0
 66
1
 10
0.0
 20
0.0
 30
0.0
  0
VERTEX
  8
0
 10
215.14748396279663
 20
33.595972658993844
 30
0.0
  0
VERTEX
  8
0
 10
218.3645253671508
 20
32.495679696792024
 30
0.0
  0
SEQEND
  8
0
  0
POLYLINE
  8
0
 62
252
 70
0
 66
1
 10
0.0
 20
0.0
 30
0.0
  0
VERTEX
  8
0
 10
218.3645253671508
 20
32.495679696792024
 30
0.0
  0
VERTEX
  8
0
 10
218.3658122324122
 20
32.50364155568006
 30
0.0
  0
SEQEND
  8
0
  0
POLYLINE
  8
0
 62
252
 70
0
 66
1
 10
0.0
 20
0.0
 30
0.0
  0
VERTEX
  8
0
 10
206.70890807806816
 20
37.01830733435147
 30
0.0
  0
VERTEX
  8
0
 10
203.4905798084526
 20
38.11063843766525
 30
0.0
  0
SEQEND
  8
0
  0
POLYLINE
  8
0
 62
252
 70
0
 66
1
 10
0.0
 20
0.0
 30
0.0
  0
VERTEX
  8
0
 10
203.4905798084526
 20
38.11063843766525
 30
0.0
  0
VERTEX
  8
0
 10
206.70762121280677
 20
37.01034547546343
 30
0.0
  0
SEQEND
  8
0
  0
POLYLINE
  8
0
 62
252
 70
0
 66
1
 10
0.0
 20
0.0
 30
0.0
  0
VERTEX
  8
0
 10
206.70762121280677
 20
37.01034547546343
 30
0.0
  0
VERTEX
  8
0
 10
206.70890807806816
 20
37.01830733435147
 30
0.0
  0
SEQEND
  8
0
  0
POLYLINE
  8
0
 62
252
 70
0
 66
1
 10
0.0
 20
0.0
 30
0.0
  0
VERTEX
  8
0
 10
284.30679959641753
 20
6.964998094059283
 30
0.0
  0
VERTEX
  8
0
 10
281.088471326802
 20
8.057329197373068
 30
0.0
  0
SEQEND
  8
0
  0
POLYLINE
  8
0
 62
252
 70
0
 66
1
 10
0.0
 20
0.0
 30
0.0
  0
VERTEX
  8
0
 10
281.088471326802
 20
8.057329197373068
 30
0.0
  0
VERTEX
  8
0
 10
284.30551273115617
 20
6.957036235171241
 30
0.0
  0
SEQEND
  8
0
  0
POLYLINE
  8
0
 62
252
 70
0
 66
1
 10
0.0
 20
0.0
 30
0.0
  0
VERTEX
  8
0
 10
284.30551273115617
 20
6.957036235171241
 30
0.0
  0
VERTEX
  8
0
 10
284.30679959641753
 20
6.964998094059283
 30
0.0
  0
SEQEND
  8
0
  0
POLYLINE
  8
0
 62
252
 70
0
 66
1
 10
0.0
 20
0.0
 30
0.0
  0
VERTEX
  8
0
 10
295.9145311442923
 20
2.4731228038312167
 30
0.0
  0
VERTEX
  8
0
 10
292.69620287467677
 20
3.5654539071450024
 30
0.0
  0
SEQEND
  8
0
  0
POLYLINE
  8
0
 62
252
 70
0
 66
1
 10
0.0
 20
0.0
 30
0.0
  0
VERTEX
  8
0
 10
292.69620287467677
 20
3.5654539071450024
 30
0.0
  0
VERTEX
  8
0
 10
295.91324427903095
 20
2.4651609449431753
 30
0.0
  0
SEQEND
  8
0
  0
POLYLINE
  8
0
 62
252
 70
0
 66
1
 10
0.0
 20
0.0
 30
0.0
  0
VERTEX
  8
0
 10
295.91324427903095
 20
2.4651609449431753
 30
0.0
  0
VERTEX
  8
0
 10
295.9145311442923
 20
2.4731228038312167
 30
0.0
  0
SEQEND
  8
0
  0
ENDBLK
  0
ENDSEC
  0
SECTION
  2
ENTITIES
  0
INSERT
  2
EXTRUDE286
  8
0
 62
252
 10
0.0
 20
0.0
 30
0.0
  0
ENDSEC
  0
EOF
